<svg xmlns="http://www.w3.org/2000/svg" viewBox="0 0 1200 720" role="img" aria-labelledby="title desc"><title id="title">Open horizon illustration</title><desc id="desc">An abstract transition from layered shadow forms toward a balanced bright horizon, representing accountable movement from uncertainty toward clarity.</desc><rect width="1200" height="720" fill="#F8F7F2"/><path d="M0 720V330c180-120 350-90 510 20 150 104 300 82 450-34 98-76 178-92 240-78v482Z" fill="#132033" opacity=".96"/><path d="M0 720V430c190-86 360-56 520 44 156 98 320 70 470-24 80-50 150-62 210-50v320Z" fill="#276C68" opacity=".5"/><circle cx="960" cy="180" r="95" fill="#B8852F" opacity=".2"/><path d="M130 345H1070" stroke="#B8852F" stroke-width="8" stroke-linecap="round"/><circle cx="600" cy="345" r="18" fill="#F8F7F2" stroke="#132033" stroke-width="6"/><path d="M600 245v80" stroke="#F8F7F2" stroke-width="8" stroke-linecap="round"/><path d="M420 345h360" stroke="#F8F7F2" stroke-width="8" stroke-linecap="round"/><g fill="#F8F7F2" opacity=".7"><rect x="170" y="530" width="250" height="18" rx="9"/><rect x="170" y="570" width="190" height="18" rx="9"/><rect x="820" y="500" width="220" height="18" rx="9"/><rect x="860" y="540" width="180" height="18" rx="9"/></g></svg>